<?xml version="1.0" encoding="utf-8"?>
<!-- Generator: Adobe Illustrator 27.0.0, SVG Export Plug-In . SVG Version: 6.00 Build 0)  -->
<svg version="1.1" id="Слой_1" xmlns="http://www.w3.org/2000/svg" xmlns:xlink="http://www.w3.org/1999/xlink" x="0px" y="0px"
	 viewBox="0 0 935.7 872.4" style="enable-background:new 0 0 935.7 872.4;" xml:space="preserve">
<style type="text/css">
	.st0{fill-rule:evenodd;clip-rule:evenodd;fill:#062159;}
</style>
<g>
	<path class="st0" d="M114.3,111.8c0.3-0.1,213.1-0.2,213.1-0.3c0,0.1,32.3,48.2,32.3,49C464,81,550.1,123.6,550.1,123.6
		s58.1,8.1,86.8-9.1c-62.9,112.4-173.5,47.6-205.5,47.7c-23.7,0.1-60.3,29.7-60.3,29.7s136.1,213.3,146.4,223.6
		c26.7-43.5,187.6-307.3,187.6-307.3l116.3,0.3c0.1,0.1,0,622.5,0,622.5h-99.1c0,0-1.7-285.4,0-285.4c1.3,0.4-112,0.2-112-0.2
		c2.6-0.3-111.6,185.4-111.6,185.4s63.5,109.9,126.1,121.6C515.9,816.2,442,723.5,442,723.5l-25.8,41.2c-0.8,2.3-33,0.3-43.3,0.3
		c0.5,3.6,38.6-60.6,45.5-73.5c0.9,0-203.8-325.5-203.8-326.5c0,1.7,58.6-129.6,60.3-129.6c-1,3-56.4-96-56.4-96h-9.9
		c0,0-0.8,590.3-0.2,591.6h-94.4C114.8,730.9,114.3,112.4,114.3,111.8L114.3,111.8z M722.3,147.6L477.9,548.1
		c0,0-180.5-280.8-181.1-280c-42.6,57.4-36.6,95-36.6,95h70.3l147.4,232.5l137.4-230.8l107,0.6V147.6z"/>
</g>
</svg>
